%TF.GenerationSoftware,KiCad,Pcbnew,10.0.5*%
%TF.CreationDate,2026-08-20T20:08:08-04:00*%
%TF.ProjectId,N64 U12 LDO Repair PCB,4e363420-5531-4322-904c-444f20526570,rev?*%
%TF.SameCoordinates,Original*%
%TF.FileFunction,Copper,L2,Bot*%
%TF.FilePolarity,Positive*%
%FSLAX46Y46*%
G04 Gerber Fmt 4.6, Leading zero omitted, Abs format (unit mm)*
G04 Created by KiCad (PCBNEW 10.0.5) date 2026-08-20 20:08:08*
%MOMM*%
%LPD*%
G01*
G04 APERTURE LIST*
G04 Aperture macros list*
%AMRoundRect*
0 Rectangle with rounded corners*
0 $1 Rounding radius*
0 $2 $3 $4 $5 $6 $7 $8 $9 X,Y pos of 4 corners*
0 Add a 4 corners polygon primitive as box body*
4,1,4,$2,$3,$4,$5,$6,$7,$8,$9,$2,$3,0*
0 Add four circle primitives for the rounded corners*
1,1,$1+$1,$2,$3*
1,1,$1+$1,$4,$5*
1,1,$1+$1,$6,$7*
1,1,$1+$1,$8,$9*
0 Add four rect primitives between the rounded corners*
20,1,$1+$1,$2,$3,$4,$5,0*
20,1,$1+$1,$4,$5,$6,$7,0*
20,1,$1+$1,$6,$7,$8,$9,0*
20,1,$1+$1,$8,$9,$2,$3,0*%
G04 Aperture macros list end*
%TA.AperFunction,CastellatedPad*%
%ADD10RoundRect,0.135000X0.965000X0.315000X-0.965000X0.315000X-0.965000X-0.315000X0.965000X-0.315000X0*%
%TD*%
%TA.AperFunction,CastellatedPad*%
%ADD11RoundRect,0.250000X0.850000X2.650000X-0.850000X2.650000X-0.850000X-2.650000X0.850000X-2.650000X0*%
%TD*%
%TA.AperFunction,ViaPad*%
%ADD12C,0.600000*%
%TD*%
%TA.AperFunction,Conductor*%
%ADD13C,0.500000*%
%TD*%
G04 APERTURE END LIST*
D10*
%TO.P,J1,1,Pin_1_1*%
%TO.N,+3V3*%
X55040000Y-52540000D03*
%TO.P,J1,2,Pin_2_2*%
%TO.N,unconnected-(J1-Pin_2-Pad2)*%
X55040000Y-51270000D03*
%TO.P,J1,3,Pin_3_3*%
%TO.N,+2V5*%
X55040000Y-50000000D03*
D11*
X46650000Y-50000000D03*
D10*
%TO.P,J1,4,Pin_4_4*%
%TO.N,unconnected-(J1-Pin_4-Pad4)*%
X55040000Y-48730000D03*
%TO.P,J1,5,Pin_5_5*%
%TO.N,GND*%
X55040000Y-47460000D03*
%TD*%
D12*
%TO.N,+2V5*%
X49400000Y-49300000D03*
%TO.N,GND*%
X51675000Y-48350000D03*
X50700000Y-52500000D03*
X49400000Y-47400000D03*
%TD*%
%TO.N,+2V5*%
D13*
X50100000Y-50000000D02*
X55000000Y-50000000D01*
X49400000Y-49300000D02*
X50100000Y-50000000D01*
%TO.N,GND*%
X48400000Y-50200000D02*
X50700000Y-52500000D01*
X48400000Y-48400000D02*
X48400000Y-50200000D01*
X49400000Y-47400000D02*
X48400000Y-48400000D01*
%TD*%
%TA.AperFunction,Conductor*%
%TO.N,GND*%
G36*
X53589151Y-46520185D02*
G01*
X53634906Y-46572989D01*
X53644850Y-46642147D01*
X53615825Y-46705703D01*
X53609793Y-46712181D01*
X53569268Y-46752705D01*
X53569261Y-46752714D01*
X53487593Y-46890808D01*
X53487592Y-46890811D01*
X53442833Y-47044870D01*
X53442832Y-47044876D01*
X53440000Y-47080864D01*
X53440000Y-47210000D01*
X54873012Y-47210000D01*
X54855795Y-47219940D01*
X54799940Y-47275795D01*
X54760444Y-47344204D01*
X54740000Y-47420504D01*
X54740000Y-47499496D01*
X54760444Y-47575796D01*
X54799940Y-47644205D01*
X54855795Y-47700060D01*
X54873012Y-47710000D01*
X53440000Y-47710000D01*
X53440000Y-47839135D01*
X53442832Y-47875123D01*
X53442833Y-47875129D01*
X53487592Y-48029188D01*
X53487595Y-48029196D01*
X53488895Y-48031394D01*
X53489388Y-48033339D01*
X53490691Y-48036349D01*
X53490205Y-48036559D01*
X53506073Y-48099119D01*
X53490134Y-48153404D01*
X53490230Y-48153446D01*
X53489893Y-48154223D01*
X53488896Y-48157621D01*
X53487133Y-48160600D01*
X53487129Y-48160611D01*
X53442335Y-48314791D01*
X53442334Y-48314797D01*
X53439500Y-48350811D01*
X53439500Y-49109168D01*
X53439501Y-49109185D01*
X53440020Y-49115772D01*
X53425655Y-49184149D01*
X53376604Y-49233905D01*
X53316402Y-49249500D01*
X50462229Y-49249500D01*
X50395190Y-49229815D01*
X50374548Y-49213181D01*
X50146072Y-48984705D01*
X50119191Y-48944473D01*
X50109397Y-48920828D01*
X50109396Y-48920826D01*
X50109394Y-48920821D01*
X50080324Y-48877315D01*
X50021789Y-48789710D01*
X49910292Y-48678213D01*
X49910288Y-48678210D01*
X49779185Y-48590609D01*
X49779172Y-48590602D01*
X49633501Y-48530264D01*
X49633489Y-48530261D01*
X49478845Y-48499500D01*
X49478842Y-48499500D01*
X49321158Y-48499500D01*
X49321155Y-48499500D01*
X49166510Y-48530261D01*
X49166498Y-48530264D01*
X49020827Y-48590602D01*
X49020814Y-48590609D01*
X48889711Y-48678210D01*
X48889707Y-48678213D01*
X48778213Y-48789707D01*
X48778210Y-48789711D01*
X48690609Y-48920814D01*
X48690602Y-48920827D01*
X48630264Y-49066498D01*
X48630261Y-49066510D01*
X48599500Y-49221153D01*
X48599500Y-49378846D01*
X48630261Y-49533489D01*
X48630264Y-49533501D01*
X48690602Y-49679172D01*
X48690609Y-49679185D01*
X48778210Y-49810288D01*
X48778213Y-49810292D01*
X48889710Y-49921789D01*
X48977315Y-49980324D01*
X49020821Y-50009394D01*
X49020826Y-50009396D01*
X49020828Y-50009397D01*
X49044473Y-50019191D01*
X49084705Y-50046072D01*
X49517048Y-50478415D01*
X49517049Y-50478416D01*
X49608026Y-50569393D01*
X49621585Y-50582952D01*
X49744498Y-50665080D01*
X49744511Y-50665087D01*
X49830265Y-50700607D01*
X49881087Y-50721658D01*
X49881091Y-50721658D01*
X49881092Y-50721659D01*
X50026079Y-50750500D01*
X50026082Y-50750500D01*
X53316401Y-50750500D01*
X53383440Y-50770185D01*
X53429195Y-50822989D01*
X53440018Y-50884233D01*
X53439501Y-50890798D01*
X53439500Y-50890826D01*
X53439500Y-51649168D01*
X53439501Y-51649193D01*
X53442335Y-51685204D01*
X53487129Y-51839388D01*
X53487135Y-51839403D01*
X53488605Y-51841888D01*
X53489163Y-51844088D01*
X53490230Y-51846554D01*
X53489832Y-51846726D01*
X53505782Y-51909613D01*
X53490003Y-51963348D01*
X53490230Y-51963446D01*
X53489436Y-51965278D01*
X53488605Y-51968112D01*
X53487135Y-51970596D01*
X53487129Y-51970611D01*
X53442335Y-52124791D01*
X53442334Y-52124797D01*
X53439500Y-52160811D01*
X53439500Y-52919168D01*
X53439501Y-52919193D01*
X53442335Y-52955204D01*
X53487129Y-53109388D01*
X53487131Y-53109393D01*
X53568863Y-53247595D01*
X53568869Y-53247603D01*
X53609085Y-53287819D01*
X53642570Y-53349142D01*
X53637586Y-53418834D01*
X53595714Y-53474767D01*
X53530250Y-53499184D01*
X53521404Y-53499500D01*
X47989574Y-53499500D01*
X47922535Y-53479815D01*
X47876780Y-53427011D01*
X47866836Y-53357853D01*
X47895861Y-53294297D01*
X47924478Y-53269961D01*
X47960739Y-53247595D01*
X47968656Y-53242712D01*
X48092712Y-53118656D01*
X48184814Y-52969334D01*
X48239999Y-52802797D01*
X48250500Y-52700009D01*
X48250499Y-47299992D01*
X48239999Y-47197203D01*
X48184814Y-47030666D01*
X48092712Y-46881344D01*
X47968656Y-46757288D01*
X47968655Y-46757287D01*
X47924478Y-46730039D01*
X47877753Y-46678091D01*
X47866530Y-46609129D01*
X47894373Y-46545047D01*
X47952442Y-46506190D01*
X47989574Y-46500500D01*
X53522112Y-46500500D01*
X53589151Y-46520185D01*
G37*
%TD.AperFunction*%
%TD*%
M02*
