%TF.GenerationSoftware,KiCad,Pcbnew,10.0.5*%
%TF.CreationDate,2026-08-08T14:21:30-04:00*%
%TF.ProjectId,N64 U12 Replacement PCB,4e363420-5531-4322-9052-65706c616365,rev?*%
%TF.SameCoordinates,Original*%
%TF.FileFunction,Copper,L2,Bot*%
%TF.FilePolarity,Positive*%
%FSLAX46Y46*%
G04 Gerber Fmt 4.6, Leading zero omitted, Abs format (unit mm)*
G04 Created by KiCad (PCBNEW 10.0.5) date 2026-08-08 14:21:30*
%MOMM*%
%LPD*%
G01*
G04 APERTURE LIST*
G04 Aperture macros list*
%AMRoundRect*
0 Rectangle with rounded corners*
0 $1 Rounding radius*
0 $2 $3 $4 $5 $6 $7 $8 $9 X,Y pos of 4 corners*
0 Add a 4 corners polygon primitive as box body*
4,1,4,$2,$3,$4,$5,$6,$7,$8,$9,$2,$3,0*
0 Add four circle primitives for the rounded corners*
1,1,$1+$1,$2,$3*
1,1,$1+$1,$4,$5*
1,1,$1+$1,$6,$7*
1,1,$1+$1,$8,$9*
0 Add four rect primitives between the rounded corners*
20,1,$1+$1,$2,$3,$4,$5,0*
20,1,$1+$1,$4,$5,$6,$7,0*
20,1,$1+$1,$6,$7,$8,$9,0*
20,1,$1+$1,$8,$9,$2,$3,0*%
G04 Aperture macros list end*
%TA.AperFunction,CastellatedPad*%
%ADD10RoundRect,0.120000X0.980000X0.280000X-0.980000X0.280000X-0.980000X-0.280000X0.980000X-0.280000X0*%
%TD*%
%TA.AperFunction,CastellatedPad*%
%ADD11RoundRect,0.250000X0.850000X2.650000X-0.850000X2.650000X-0.850000X-2.650000X0.850000X-2.650000X0*%
%TD*%
%TA.AperFunction,ViaPad*%
%ADD12C,0.600000*%
%TD*%
%TA.AperFunction,Conductor*%
%ADD13C,0.500000*%
%TD*%
G04 APERTURE END LIST*
D10*
%TO.P,J1,1,Pin_1_1*%
%TO.N,+3V3*%
X55040000Y-52280000D03*
%TO.P,J1,2,Pin_2_2*%
%TO.N,unconnected-(J1-Pin_2-Pad2)*%
X55040000Y-51140000D03*
%TO.P,J1,3,Pin_3_3*%
%TO.N,+2V5*%
X55040000Y-50000000D03*
%TO.P,J1,4,Pin_4_4*%
%TO.N,unconnected-(J1-Pin_4-Pad4)*%
X55040000Y-48860000D03*
%TO.P,J1,5,Pin_5_5*%
%TO.N,GND*%
X55040000Y-47720000D03*
D11*
%TO.P,J1,3,Pin_3_3*%
%TO.N,+2V5*%
X46650000Y-50000000D03*
%TD*%
D12*
%TO.N,GND*%
X50700000Y-52500000D03*
%TO.N,+2V5*%
X49400000Y-49300000D03*
%TO.N,GND*%
X51675000Y-48350000D03*
X49400000Y-47400000D03*
%TD*%
%TO.N,+2V5*%
D13*
X50100000Y-50000000D02*
X55000000Y-50000000D01*
X49400000Y-49300000D02*
X50100000Y-50000000D01*
%TD*%
%TA.AperFunction,Conductor*%
%TO.N,GND*%
G36*
X55042539Y-46520185D02*
G01*
X55088294Y-46572989D01*
X55099500Y-46624500D01*
X55099500Y-47474047D01*
X55089728Y-47470000D01*
X54990272Y-47470000D01*
X54898386Y-47508060D01*
X54828060Y-47578386D01*
X54790000Y-47670272D01*
X54790000Y-47769728D01*
X54828060Y-47861614D01*
X54898386Y-47931940D01*
X54947841Y-47952424D01*
X54937145Y-47957684D01*
X54916000Y-47959500D01*
X53997324Y-47959500D01*
X53962167Y-47962267D01*
X53962154Y-47962269D01*
X53952491Y-47965077D01*
X53917899Y-47970000D01*
X53440001Y-47970000D01*
X53440001Y-48062625D01*
X53442765Y-48097756D01*
X53488330Y-48254593D01*
X53488131Y-48324104D01*
X53488183Y-48324120D01*
X53488130Y-48324300D01*
X53488130Y-48324462D01*
X53487897Y-48325102D01*
X53442268Y-48482156D01*
X53442267Y-48482162D01*
X53439500Y-48517324D01*
X53439500Y-49125500D01*
X53419815Y-49192539D01*
X53367011Y-49238294D01*
X53315500Y-49249500D01*
X50462229Y-49249500D01*
X50395190Y-49229815D01*
X50374548Y-49213181D01*
X50146072Y-48984705D01*
X50119191Y-48944473D01*
X50109397Y-48920828D01*
X50109396Y-48920826D01*
X50109394Y-48920821D01*
X50080324Y-48877315D01*
X50021789Y-48789710D01*
X49910292Y-48678213D01*
X49910288Y-48678210D01*
X49779185Y-48590609D01*
X49779172Y-48590602D01*
X49633501Y-48530264D01*
X49633489Y-48530261D01*
X49478845Y-48499500D01*
X49478842Y-48499500D01*
X49321158Y-48499500D01*
X49321155Y-48499500D01*
X49166510Y-48530261D01*
X49166498Y-48530264D01*
X49020827Y-48590602D01*
X49020814Y-48590609D01*
X48889711Y-48678210D01*
X48889707Y-48678213D01*
X48778213Y-48789707D01*
X48778210Y-48789711D01*
X48690609Y-48920814D01*
X48690602Y-48920827D01*
X48630264Y-49066498D01*
X48630261Y-49066510D01*
X48599500Y-49221153D01*
X48599500Y-49378846D01*
X48630261Y-49533489D01*
X48630264Y-49533501D01*
X48690602Y-49679172D01*
X48690609Y-49679185D01*
X48778210Y-49810288D01*
X48778213Y-49810292D01*
X48889710Y-49921789D01*
X48977315Y-49980324D01*
X49020821Y-50009394D01*
X49020826Y-50009396D01*
X49020828Y-50009397D01*
X49044473Y-50019191D01*
X49084705Y-50046072D01*
X49517048Y-50478415D01*
X49517049Y-50478416D01*
X49608633Y-50570000D01*
X49621585Y-50582952D01*
X49744498Y-50665080D01*
X49744511Y-50665087D01*
X49881082Y-50721656D01*
X49881087Y-50721658D01*
X49881091Y-50721658D01*
X49881092Y-50721659D01*
X50026079Y-50750500D01*
X50026082Y-50750500D01*
X53315500Y-50750500D01*
X53382539Y-50770185D01*
X53428294Y-50822989D01*
X53439500Y-50874500D01*
X53439500Y-51482675D01*
X53442267Y-51517837D01*
X53488045Y-51675406D01*
X53488045Y-51744594D01*
X53442267Y-51902162D01*
X53439500Y-51937324D01*
X53439500Y-52622675D01*
X53442267Y-52657837D01*
X53442268Y-52657843D01*
X53486005Y-52808384D01*
X53486006Y-52808387D01*
X53565810Y-52943329D01*
X53565816Y-52943337D01*
X53676662Y-53054183D01*
X53676666Y-53054186D01*
X53676668Y-53054188D01*
X53811611Y-53133993D01*
X53851313Y-53145527D01*
X53962156Y-53177731D01*
X53962159Y-53177731D01*
X53962161Y-53177732D01*
X53997332Y-53180500D01*
X54975500Y-53180500D01*
X55042539Y-53200185D01*
X55088294Y-53252989D01*
X55099500Y-53304500D01*
X55099500Y-53375500D01*
X55079815Y-53442539D01*
X55027011Y-53488294D01*
X54975500Y-53499500D01*
X47989574Y-53499500D01*
X47922535Y-53479815D01*
X47876780Y-53427011D01*
X47866836Y-53357853D01*
X47895861Y-53294297D01*
X47924478Y-53269961D01*
X47951994Y-53252989D01*
X47968656Y-53242712D01*
X48092712Y-53118656D01*
X48184814Y-52969334D01*
X48239999Y-52802797D01*
X48250500Y-52700009D01*
X48250499Y-47377379D01*
X53440000Y-47377379D01*
X53440000Y-47470000D01*
X54790000Y-47470000D01*
X54790000Y-46820000D01*
X53997396Y-46820000D01*
X53997374Y-46820001D01*
X53962243Y-46822765D01*
X53811810Y-46866469D01*
X53676980Y-46946207D01*
X53676971Y-46946214D01*
X53566214Y-47056971D01*
X53566207Y-47056980D01*
X53486469Y-47191810D01*
X53442766Y-47342240D01*
X53442765Y-47342245D01*
X53440000Y-47377379D01*
X48250499Y-47377379D01*
X48250499Y-47299992D01*
X48239999Y-47197203D01*
X48184814Y-47030666D01*
X48092712Y-46881344D01*
X47968656Y-46757288D01*
X47968655Y-46757287D01*
X47924478Y-46730039D01*
X47877753Y-46678091D01*
X47866530Y-46609129D01*
X47894373Y-46545047D01*
X47952442Y-46506190D01*
X47989574Y-46500500D01*
X54975500Y-46500500D01*
X55042539Y-46520185D01*
G37*
%TD.AperFunction*%
%TD*%
M02*
